<svg width="6" height="8" viewBox="0 0 6 8" fill="none" xmlns="http://www.w3.org/2000/svg">
<path d="M1.16381 2.29574C1.12818 2.67574 1.10318 3.34824 1.32756 3.63449C1.32756 3.63449 1.22193 2.89574 2.16881 1.96887C2.55006 1.59574 2.63818 1.08824 2.50506 0.707616C2.42943 0.491991 2.29131 0.313866 2.17131 0.189491C2.10131 0.116366 2.15506 -0.00425921 2.25693 0.000115785C2.87318 0.0276158 3.87193 0.198866 4.29631 1.26387C4.48256 1.73137 4.49631 2.21449 4.40756 2.70574C4.35131 3.01949 4.15131 3.71699 4.60756 3.80262C4.93318 3.86387 5.09068 3.60512 5.16131 3.41887C5.19068 3.34137 5.29256 3.32199 5.34756 3.38387C5.89756 4.00949 5.94443 4.74637 5.83068 5.38074C5.61068 6.60699 4.36881 7.49949 3.13506 7.49949C1.59381 7.49949 0.366932 6.61762 0.0488072 5.02137C-0.0793178 4.37699 -0.0143176 3.10199 0.979432 2.20199C1.05318 2.13449 1.17381 2.19449 1.16381 2.29574Z" fill="url(#paint0_radial_316_4)"/>
<path d="M3.69819 4.58886C3.13006 3.85761 3.38444 3.02324 3.52381 2.69074C3.54256 2.64699 3.49256 2.60574 3.45319 2.63261C3.20881 2.79886 2.70819 3.19011 2.47506 3.74074C2.15944 4.48511 2.18194 4.84949 2.36881 5.29449C2.48131 5.56261 2.35069 5.61949 2.28506 5.62949C2.22131 5.63949 2.16256 5.59699 2.11569 5.55261C1.98086 5.42313 1.88477 5.25865 1.83819 5.07761C1.82819 5.03886 1.77756 5.02824 1.75444 5.06011C1.57944 5.30199 1.48881 5.69011 1.48444 5.96449C1.47069 6.81261 2.17131 7.50011 3.01881 7.50011C4.08694 7.50011 4.86506 6.31886 4.25131 5.33136C4.07319 5.04386 3.90569 4.85574 3.69819 4.58886Z" fill="url(#paint1_radial_316_4)"/>
<defs>
<radialGradient id="paint0_radial_316_4" cx="0" cy="0" r="1" gradientTransform="matrix(-4.41169 -0.0191467 -0.0314553 7.2387 2.82979 7.51892)" gradientUnits="userSpaceOnUse">
<stop offset="0.314" stop-color="#FF9800"/>
<stop offset="0.662" stop-color="#FF6D00"/>
<stop offset="0.972" stop-color="#F44336"/>
</radialGradient>
<radialGradient id="paint1_radial_316_4" cx="0" cy="0" r="1" gradientTransform="matrix(-0.0466241 4.61579 3.47373 0.0350835 3.07756 3.12876)" gradientUnits="userSpaceOnUse">
<stop offset="0.214" stop-color="#FFF176"/>
<stop offset="0.328" stop-color="#FFF27D"/>
<stop offset="0.487" stop-color="#FFF48F"/>
<stop offset="0.672" stop-color="#FFF7AD"/>
<stop offset="0.793" stop-color="#FFF9C4"/>
<stop offset="0.822" stop-color="#FFF8BD" stop-opacity="0.804"/>
<stop offset="0.863" stop-color="#FFF6AB" stop-opacity="0.529"/>
<stop offset="0.91" stop-color="#FFF38D" stop-opacity="0.209"/>
<stop offset="0.941" stop-color="#FFF176" stop-opacity="0"/>
</radialGradient>
</defs>
</svg>
