<svg width="30" height="30" viewBox="0 0 30 30" fill="none" xmlns="http://www.w3.org/2000/svg">
<path d="M22.2514 22.5346L21.0591 20.5077L23.2351 13.9947L25.3365 13.2942L26.8269 14.412V14.6207C26.8269 14.725 26.8716 14.8144 26.8716 14.9038C26.8716 17.8399 25.888 20.4332 23.9356 22.6687L22.2514 22.5346ZM11.5505 19.375L9.50865 13.3687L14.9038 9.58317L20.299 13.3687L18.2572 19.375H11.5505ZM14.9038 26.8716C13.5923 26.8716 12.3553 26.663 11.1779 26.2457L10.1495 23.9952L11.1332 22.3558H18.749L19.6582 23.9952L18.6298 26.2457C17.4524 26.663 16.2154 26.8716 14.9038 26.8716ZM5.87212 22.6687C5.08221 21.7447 4.39663 20.5077 3.81538 19.0024C3.23413 17.4822 2.93606 16.1111 2.93606 14.9038C2.93606 14.8144 2.98077 14.725 2.98077 14.6207V14.412L4.47115 13.2942L6.5726 13.9947L8.74856 20.5077L7.55625 22.5346L5.87212 22.6687ZM13.4135 4.90337V6.9899L7.45192 11.1183L5.45481 10.4923L4.82885 8.46538C5.48461 7.45192 6.45337 6.43846 7.7351 5.45481C9.01683 4.47115 10.2389 3.83029 11.4014 3.5024L13.4135 4.90337ZM18.4062 3.5024C19.5688 3.83029 20.7909 4.47115 22.0726 5.45481C23.3543 6.43846 24.3231 7.45192 24.9788 8.46538L24.3529 10.4923L22.3558 11.1332L16.3942 7.00481V4.90337L18.4062 3.5024ZM4.36683 4.36683C1.49038 7.28798 0 10.8053 0 14.9038C0 19.0024 1.49038 22.5197 4.36683 25.4409C7.24327 28.362 10.8053 29.8077 14.9038 29.8077C19.0024 29.8077 22.5197 28.3173 25.4409 25.4409C28.362 22.5644 29.8077 19.0024 29.8077 14.9038C29.8077 10.8053 28.3173 7.28798 25.4409 4.36683C22.5644 1.44567 19.0024 0 14.9038 0C10.8053 0 7.28798 1.49038 4.36683 4.36683Z" fill="#023397"/>
</svg>
