<svg width="30" height="30" viewBox="0 0 30 30" fill="none" xmlns="http://www.w3.org/2000/svg">
<path d="M21.6667 15C21.6667 14.0833 20.9167 13.3333 20 13.3333H15C14.0833 13.3333 13.3333 14.0833 13.3333 15C13.3333 15.9167 14.0833 16.6667 15 16.6667H20C20.9167 16.6667 21.6667 15.9167 21.6667 15ZM15 3.33333C21.4317 3.33333 26.6667 8.56833 26.6667 15C26.6667 21.4317 21.4317 26.6667 15 26.6667C8.56833 26.6667 3.33333 21.4317 3.33333 15C3.33333 8.56833 8.56833 3.33333 15 3.33333ZM15 0C6.715 0 0 6.715 0 15C0 23.285 6.715 30 15 30C23.285 30 30 23.285 30 15C30 6.715 23.285 0 15 0ZM16.6667 10C16.6667 9.08333 15.9167 8.33333 15 8.33333C14.0833 8.33333 13.3333 9.08333 13.3333 10V15C13.3333 15.9167 14.0833 16.6667 15 16.6667C15.9167 16.6667 16.6667 15.9167 16.6667 15V10ZM15 6.66667C19.595 6.66667 23.3333 10.405 23.3333 15C23.3333 19.595 19.595 23.3333 15 23.3333C10.405 23.3333 6.66667 19.595 6.66667 15C6.66667 10.405 10.405 6.66667 15 6.66667ZM15 5C12.3478 5 9.8043 6.05357 7.92893 7.92893C6.05357 9.8043 5 12.3478 5 15C5 17.6522 6.05357 20.1957 7.92893 22.0711C9.8043 23.9464 12.3478 25 15 25C17.6522 25 20.1957 23.9464 22.0711 22.0711C23.9464 20.1957 25 17.6522 25 15C25 12.3478 23.9464 9.8043 22.0711 7.92893C20.1957 6.05357 17.6522 5 15 5Z" fill="currentColor"/>
</svg>
