<svg width="30" height="30" viewBox="0 0 30 30" fill="none" xmlns="http://www.w3.org/2000/svg">
<path d="M15 0C6.716 0 0 6.716 0 15C0 23.284 6.716 30 15 30C23.284 30 30 23.284 30 15C30 6.716 23.284 0 15 0ZM15 2.5C17.33 2.5 19.51 3.12 21.4 4.2L18.75 8.8C17.59 8.29 16.33 8 15 8C13.67 8 12.41 8.29 11.25 8.8L8.6 4.2C10.49 3.12 12.67 2.5 15 2.5ZM4.2 8.6L8.8 11.25C8.29 12.41 8 13.67 8 15C8 16.33 8.29 17.59 8.8 18.75L4.2 21.4C3.12 19.51 2.5 17.33 2.5 15C2.5 12.67 3.12 10.49 4.2 8.6ZM15 27.5C12.67 27.5 10.49 26.88 8.6 25.8L11.25 21.2C12.41 21.71 13.67 22 15 22C16.33 22 17.59 21.71 18.75 21.2L21.4 25.8C19.51 26.88 17.33 27.5 15 27.5ZM15 20C12.24 20 10 17.76 10 15C10 12.24 12.24 10 15 10C17.76 10 20 12.24 20 15C20 17.76 17.76 20 15 20ZM25.8 21.4L21.2 18.75C21.71 17.59 22 16.33 22 15C22 13.67 21.71 12.41 21.2 11.25L25.8 8.6C26.88 10.49 27.5 12.67 27.5 15C27.5 17.33 26.88 19.51 25.8 21.4Z" fill="currentColor"/>
<circle cx="15" cy="15" r="4" fill="currentColor"/>
</svg>
