<svg width="45" height="41" viewBox="0 0 45 41" fill="none" xmlns="http://www.w3.org/2000/svg">
<path d="M8.18182 20.5L12.2727 12.3V10.25H6.13636V12.3H10.2273L6.13636 20.5M16.3636 20.5L20.4545 12.3V10.25H14.3182V12.3H18.4091L14.3182 20.5M24.5455 20.5L28.6364 12.3V10.25H22.5V12.3H26.5909L22.5 20.5M40.9091 0C38.6591 0 36.8182 1.845 36.8182 4.1C36.8182 5.535 37.6364 6.97 38.8636 7.585V30.75H32.7273V26.65C33.9545 26.65 34.7727 25.83 34.7727 24.6V6.15C34.7727 4.92 33.9545 4.1 32.7273 4.1H24.9545C23.3182 1.64 20.4545 0 17.3864 0C14.3182 0 11.4545 1.64 9.81818 4.1H2.04545C0.818182 4.1 0 4.92 0 6.15V24.6C0 25.83 0.818182 26.65 2.04545 26.65V41H32.7273V34.85H38.8636C41.1136 34.85 42.9545 33.005 42.9545 30.75V7.585C44.1818 6.97 45 5.535 45 4.1C45 1.845 43.1591 0 40.9091 0ZM24.5455 34.85H10.2273V30.75H24.5455V34.85ZM30.6818 22.55H4.09091V8.2H30.6818V22.55Z" fill="#023397"/>
</svg>
