<svg width="6" height="8" viewBox="0 0 6 8" fill="none" xmlns="http://www.w3.org/2000/svg">
<path d="M3.3916 0C3.41634 0.0201488 6 2.13137 6 4.94141C5.99992 5.88268 5.47762 8 2.86914 8C0.521867 7.99974 8.49291e-05 5.88262 0 4.94141C0 3.06889 1.80724 1.89506 1.82617 1.88281C1.80814 1.91097 0.478532 3.99975 2.86914 4C5.15045 4 3.40221 0.0240677 3.3916 0ZM2.10547 5.97266C1.71179 5.97448 1.3916 6.29535 1.3916 6.68945C1.39162 7.08351 1.71071 7.40334 2.10352 7.40625H3.74805C3.65477 7.12945 3.39613 6.92833 3.08984 6.91992H2.10938C1.98435 6.91992 1.87795 6.81448 1.87793 6.68945C1.87793 6.56442 1.98441 6.45898 2.10938 6.45898H3.08984C3.39604 6.45051 3.65468 6.24943 3.74805 5.97266H2.10547ZM2.94238 5C2.63618 5.00847 2.37852 5.20956 2.28516 5.48633H3.66016C3.96638 5.47785 4.22501 5.2768 4.31836 5H2.94238Z" fill="#38E67D"/>
</svg>
