<svg width="30" height="30" viewBox="0 0 30 30" fill="none" xmlns="http://www.w3.org/2000/svg">
<path d="M3.13077 9.25671C2.23217 9.4956 1.43842 10.0204 0.872431 10.7497C0.306444 11.4791 -0.000194924 12.3723 9.29627e-08 13.2911V17.8481C9.29627e-08 18.956 0.445741 20.0185 1.23916 20.8018C2.03259 21.5852 3.1087 22.0253 4.23077 22.0253H8.07692C8.38294 22.0253 8.67643 21.9053 8.89282 21.6916C9.1092 21.478 9.23077 21.1882 9.23077 20.8861V10.2532C9.23077 9.95102 9.1092 9.66125 8.89282 9.4476C8.67643 9.23395 8.38294 9.11392 8.07692 9.11392H5.48462C6.14462 5.36202 10.0138 2.27848 15 2.27848C19.9862 2.27848 23.8554 5.36202 24.5154 9.11392H21.9231C21.6171 9.11392 21.3236 9.23395 21.1072 9.4476C20.8908 9.66125 20.7692 9.95102 20.7692 10.2532V20.8861C20.7692 21.5149 21.2862 22.0253 21.9231 22.0253H24.4815C24.2218 23.1067 23.6 24.0699 22.7169 24.7591C21.8338 25.4482 20.741 25.823 19.6154 25.8228H17.8538C17.5861 25.1692 17.0964 24.6279 16.4688 24.2917C15.8411 23.9555 15.1146 23.8453 14.4137 23.98C13.7128 24.1147 13.0812 24.4858 12.627 25.0299C12.1729 25.5739 11.9245 26.257 11.9245 26.962C11.9245 27.667 12.1729 28.3501 12.627 28.8942C13.0812 29.4382 13.7128 29.8094 14.4137 29.9441C15.1146 30.0787 15.8411 29.9685 16.4688 29.6323C17.0964 29.2961 17.5861 28.7548 17.8538 28.1013H19.6154C23.3077 28.1013 26.36 25.3975 26.8538 21.8871C27.7561 21.6508 28.5538 21.1266 29.1229 20.3961C29.6919 19.6655 30.0003 18.7697 30 17.8481V13.2911C30.0002 12.3723 29.6936 11.4791 29.1276 10.7497C28.5616 10.0204 27.7678 9.4956 26.8692 9.25671C26.2815 3.93418 21.04 0 15 0C8.96 0 3.71846 3.93418 3.13077 9.25671Z" fill="white"/>
</svg>
