<svg width="746" height="922" viewBox="0 0 746 922" fill="none" xmlns="http://www.w3.org/2000/svg">
<path d="M524.764 921.22H217.626C202.724 921.22 189.708 911.134 185.972 896.693C182.247 882.29 188.723 867.199 201.72 859.994C230.51 844.033 255.175 816.592 275.03 778.433C291.131 747.49 303.778 709.469 312.06 667.37C281.813 683.121 248.236 691.352 213.625 691.352C156.563 691.352 102.917 669.131 62.569 628.784C22.221 588.435 0 534.789 0 477.727C0 388.811 73.775 322.139 159.199 244.939C223.611 186.727 296.618 120.749 351.424 33.771L372.703 0L393.982 33.771C448.788 120.749 521.795 186.727 586.207 244.939C671.631 322.139 745.405 388.811 745.405 477.727C745.405 534.789 723.184 588.435 682.837 628.784C642.489 669.131 588.843 691.352 531.781 691.352C495.811 691.352 461.088 682.513 429.994 665.599C438.189 708.008 450.789 746.318 466.89 777.53C486.796 816.115 511.586 843.841 540.569 859.939C553.62 867.186 560.124 882.33 556.385 896.766C552.655 911.164 539.652 921.22 524.764 921.22Z" fill="white"/>
</svg>
